<svg width="100" height="100" viewBox="0 0 100 100" fill="none" xmlns="http://www.w3.org/2000/svg">
<path d="M95.9762 22.2556C95.4344 21.1769 94.12 20.7412 93.0394 21.285C91.96 21.8281 91.5256 23.1431 92.0687 24.2225C93.0275 26.1281 92.9381 27.7825 91.795 29.2787C91.6237 29.5031 91.4287 29.7137 91.2219 29.9162C91.2319 29.7644 91.245 29.6137 91.245 29.4594C91.245 25.5456 88.0606 22.3612 84.1469 22.3612C80.2331 22.3612 77.0494 25.5456 77.0494 29.4594C77.0494 33.0744 79.7681 36.0612 83.2675 36.4969C82.2031 37.4344 80.93 38.1825 79.4981 38.5287C78.0262 36.81 76.3475 35.2044 74.4562 33.7587C73.7375 35.0462 72.8937 36.2525 71.9312 37.365C73.8025 38.8125 75.4306 40.4319 76.8187 42.1694C76.8469 42.2081 76.8763 42.2444 76.9069 42.2812C78.9975 44.9256 80.53 47.8431 81.475 50.865C84.2188 60.8775 81.3125 69.9775 73.5062 75.8337C73.0875 76.1462 72.7937 76.6025 72.6812 77.1087L69.2937 92.4275H62.675V84.4587C62.675 83.7087 62.2875 83.0087 61.6562 82.6087C61.0187 82.2087 60.225 82.1587 59.5437 82.4837C54.9375 84.6837 43.1312 83.7025 38.9812 82.3712C38.3187 82.1587 37.5875 82.2775 37.025 82.69C36.4625 83.1025 36.125 83.7587 36.125 84.4587V92.4212H30.3687C30.025 89.59 29.0687 85.765 27.5062 79.4962C25.1062 70.0712 14.9 64.6525 7.275 63.7462V51.7087C14.2625 51.2212 17.4937 48.3962 19.5437 45.9087C19.575 45.8712 19.6 45.8337 19.6312 45.7962C22.5062 41.7962 24.1875 39.8087 26.55 37.6025C26.9187 37.2587 27.1625 36.7962 27.225 36.29C27.7375 32.3587 24.75 26.8337 20.1125 22.6337C23.3 21.6962 26.15 22.1275 28.1687 22.7775C30.45 23.5087 32.5812 24.8087 34.225 26.415C35.1619 27.3081 35.9494 28.3144 36.5181 29.3637C39.1125 37.4275 46.6831 43.28 55.5981 43.28C61.5994 43.28 66.9894 40.6244 70.6656 36.4312L70.6694 36.4337C70.715 36.3819 70.7569 36.3262 70.8025 36.2737C70.9506 36.1012 71.0962 35.9269 71.2387 35.7487C71.3231 35.6437 71.4069 35.5375 71.4887 35.4306C71.6275 35.2506 71.7619 35.0675 71.8944 34.8825C71.9594 34.7912 72.0256 34.7006 72.0894 34.6087C72.2625 34.3581 72.4294 34.1031 72.5919 33.845C72.6087 33.8181 72.6262 33.7925 72.6425 33.7656C74.54 30.7044 75.6394 27.0981 75.6394 23.2394C75.6394 12.1887 66.6487 3.19873 55.5987 3.19873C45.0237 3.19873 36.3419 11.4337 35.6137 21.8269C35.6119 21.825 35.6094 21.8231 35.6075 21.8219C35.1325 21.4594 34.6387 21.1094 34.1325 20.7906C32.7012 19.8781 31.1387 19.1406 29.5075 18.6156C26.0012 17.4906 20.6075 16.8531 14.8012 20.1969C14.145 20.5719 13.7325 21.2594 13.7075 22.0156C13.6762 22.7656 14.0387 23.4844 14.6637 23.9031C19.32 27.0531 22.67 32.1719 22.9012 35.0406C20.67 37.2031 18.8637 39.3781 16.1262 43.1781C14.295 45.3844 11.6762 47.4031 5.08875 47.4031C3.8825 47.4031 2.90125 48.3844 2.90125 49.5906V65.8031C2.90125 67.0094 3.8825 67.9906 5.08875 67.9906C11.2075 67.9906 21.2012 72.4719 23.2637 80.5719C25.1825 88.2469 26.145 92.0969 26.145 94.6094C26.145 95.8156 27.1262 96.7969 28.3325 96.7969H38.1325C38.195 96.7969 38.2575 96.8031 38.3137 96.8031C39.5262 96.8031 40.5012 95.8219 40.5012 94.6156V87.2156C45.1575 88.0781 52.8325 88.6781 58.3012 87.4594V94.6156C58.3012 95.8219 59.2825 96.8031 60.4887 96.8031H71.0512C72.0825 96.8031 72.97 96.0906 73.1887 95.0844L76.7825 78.8281C85.495 71.9031 88.82 61.0656 85.6888 49.6656C85.6825 49.6469 85.6762 49.6219 85.6637 49.5969C84.8712 47.0556 83.7256 44.5756 82.2419 42.2337C85.3056 40.9887 87.745 38.5875 89.2825 36.0387C91.6344 35.2556 93.8431 33.8069 95.2731 31.9356C97.4387 29.0969 97.6894 25.6594 95.9762 22.2556ZM55.5969 7.57311C64.235 7.57311 71.2625 14.6006 71.2625 23.2387C71.2625 31.8769 64.235 38.9044 55.5969 38.9044C46.9587 38.9044 39.9312 31.8769 39.9312 23.2387C39.9312 14.6006 46.9587 7.57311 55.5969 7.57311ZM84.1462 26.7356C85.6475 26.7356 86.8694 27.9575 86.8694 29.4587C86.8694 30.96 85.6475 32.1812 84.1462 32.1812C82.645 32.1812 81.4237 30.96 81.4237 29.4587C81.4237 27.9575 82.645 26.7356 84.1462 26.7356Z" fill="#04BEAD"/>
<path d="M32.3733 49.6209C33.4575 48.5367 33.4575 46.7789 32.3733 45.6948C31.2891 44.6106 29.5313 44.6106 28.4471 45.6948C27.3629 46.7789 27.3629 48.5367 28.4471 49.6209C29.5313 50.7051 31.2891 50.7051 32.3733 49.6209Z" fill="#04BEAD"/>
<path d="M64.1875 19.6562C64.1833 18.5233 63.8037 17.4238 63.1083 16.5294C62.4129 15.6351 61.4407 14.9964 60.3437 14.7132V13.25C60.3437 12.9102 60.2088 12.5843 59.9685 12.344C59.7282 12.1037 59.4023 11.9688 59.0625 11.9688C58.7227 11.9688 58.3968 12.1037 58.1565 12.344C57.9162 12.5843 57.7812 12.9102 57.7812 13.25V14.5312H55.2187V13.25C55.2187 12.9102 55.0838 12.5843 54.8435 12.344C54.6032 12.1037 54.2773 11.9688 53.9375 11.9688C53.5977 11.9688 53.2718 12.1037 53.0315 12.344C52.7912 12.5843 52.6562 12.9102 52.6562 13.25V14.5312H48.8125C48.4727 14.5312 48.1468 14.6662 47.9065 14.9065C47.6662 15.1468 47.5312 15.4727 47.5312 15.8125C47.5312 16.1523 47.6662 16.4782 47.9065 16.7185C48.1468 16.9588 48.4727 17.0938 48.8125 17.0938H50.0937V29.9062H48.8125C48.4727 29.9062 48.1468 30.0412 47.9065 30.2815C47.6662 30.5218 47.5312 30.8477 47.5312 31.1875C47.5312 31.5273 47.6662 31.8532 47.9065 32.0935C48.1468 32.3338 48.4727 32.4688 48.8125 32.4688H52.6562V33.75C52.6562 34.0898 52.7912 34.4157 53.0315 34.656C53.2718 34.8963 53.5977 35.0312 53.9375 35.0312C54.2773 35.0312 54.6032 34.8963 54.8435 34.656C55.0838 34.4157 55.2187 34.0898 55.2187 33.75V32.4688H57.7812V33.75C57.7812 34.0898 57.9162 34.4157 58.1565 34.656C58.3968 34.8963 58.7227 35.0312 59.0625 35.0312C59.4023 35.0312 59.7282 34.8963 59.9685 34.656C60.2088 34.4157 60.3437 34.0898 60.3437 33.75V32.2868C61.2473 32.0596 62.0711 31.5884 62.7251 30.9248C63.379 30.2611 63.838 29.4306 64.052 28.5237C64.2659 27.6169 64.2266 26.6688 63.9382 25.7828C63.6498 24.8968 63.1235 24.1071 62.4168 23.5C62.9702 23.0237 63.4148 22.4339 63.7203 21.7707C64.0258 21.1076 64.1851 20.3864 64.1875 19.6562ZM61.625 27.3438C61.625 28.0234 61.355 28.6751 60.8745 29.1557C60.3939 29.6363 59.7421 29.9062 59.0625 29.9062H52.6562V24.7812H59.0625C59.7421 24.7812 60.3939 25.0512 60.8745 25.5318C61.355 26.0124 61.625 26.6641 61.625 27.3438ZM52.6562 22.2188V17.0938H59.0625C59.7421 17.0938 60.3939 17.3637 60.8745 17.8443C61.355 18.3249 61.625 18.9766 61.625 19.6562C61.625 20.3359 61.355 20.9876 60.8745 21.4682C60.3939 21.9488 59.7421 22.2188 59.0625 22.2188H52.6562Z" fill="#04BEAD"/>
</svg>
