<svg width="100" height="100" viewBox="0 0 100 100" fill="none" xmlns="http://www.w3.org/2000/svg">
<path d="M30.6375 72.4569C31.4919 71.6031 31.4919 70.2175 30.6375 69.3637C29.7831 68.5094 28.3981 68.5094 27.5437 69.3637L14.7219 82.1856C13.8675 83.0394 13.8675 84.425 14.7219 85.2787C15.1494 85.7062 15.7094 85.9194 16.2687 85.9194C16.8281 85.9194 17.3887 85.7056 17.8156 85.2787L30.6375 72.4569Z" fill="#04BEAD"/>
<path d="M33.8112 75.63L27.4 82.0412C26.5456 82.895 26.5456 84.2806 27.4 85.1343C27.8275 85.5618 28.3875 85.775 28.9469 85.775C29.5062 85.775 30.0669 85.5612 30.4937 85.1343L36.905 78.7231C37.7587 77.8694 37.7587 76.4837 36.905 75.63C36.0506 74.7756 34.6656 74.7756 33.8112 75.63Z" fill="#04BEAD"/>
<path d="M8.78374 88.1225L3.92624 92.98C3.07187 93.8337 3.07187 95.2193 3.92624 96.0731C4.35374 96.5006 4.91374 96.7137 5.47312 96.7137C6.03249 96.7137 6.59312 96.5 7.01999 96.0731L11.8775 91.2156C12.7319 90.3618 12.7319 88.9762 11.8775 88.1225C11.0231 87.2681 9.63812 87.2681 8.78374 88.1225Z" fill="#04BEAD"/>
<path d="M22.0687 87.3731L17.0306 92.4113C16.1762 93.265 16.1762 94.6506 17.0306 95.5044C17.4581 95.9319 18.0181 96.145 18.5775 96.145C19.1369 96.145 19.6975 95.9313 20.1244 95.5044L25.1625 90.4663C26.0169 89.6125 26.0169 88.2269 25.1625 87.3731C24.3081 86.5181 22.9231 86.5181 22.0687 87.3731Z" fill="#04BEAD"/>
<path d="M16.4119 73.24C16.9719 73.24 17.5319 73.0262 17.9587 72.5994L24.3694 66.1887C25.2237 65.335 25.2237 63.9494 24.3694 63.0956C23.5156 62.2419 22.13 62.2413 21.2756 63.0956L14.865 69.5062C14.0106 70.36 14.0106 71.7456 14.865 72.5994C15.2919 73.0262 15.8519 73.24 16.4119 73.24Z" fill="#04BEAD"/>
<path d="M9.53314 74.8375L4.49564 79.875C3.64126 80.7288 3.64126 82.1144 4.49564 82.9681C4.92314 83.3956 5.48314 83.6088 6.04251 83.6088C6.60189 83.6088 7.16251 83.395 7.58939 82.9681L12.6275 77.93C13.4819 77.0763 13.4819 75.6906 12.6275 74.8369C11.7725 73.9831 10.3881 73.9831 9.53314 74.8375Z" fill="#04BEAD"/>
<path d="M96.5325 5.44061C96.5319 5.43686 96.5319 5.43311 96.5312 5.42998C96.5306 5.42436 96.53 5.41811 96.5294 5.41186C96.5238 5.35873 96.5062 5.30998 96.4969 5.25811C96.4812 5.17061 96.4687 5.08186 96.4425 4.99811C96.4162 4.91311 96.3781 4.83498 96.3425 4.75498C96.3212 4.70748 96.3056 4.65748 96.2812 4.61248C96.2294 4.51561 96.1662 4.42686 96.1012 4.33936C96.0837 4.31561 96.07 4.28936 96.0513 4.26623C95.9769 4.17498 95.8931 4.09311 95.8056 4.01498C95.7887 3.99998 95.775 3.98248 95.7581 3.96873C95.665 3.89061 95.5637 3.82373 95.4587 3.76186C95.4419 3.75186 95.4275 3.73936 95.4106 3.72998C95.2969 3.66748 95.1769 3.61686 95.0525 3.57498C95.0406 3.57123 95.03 3.56436 95.0181 3.56061C94.8881 3.51936 94.7525 3.49186 94.6137 3.47561C94.6044 3.47436 94.5962 3.47123 94.5875 3.46998C94.5862 3.46998 94.585 3.46998 94.5837 3.46936C94.5719 3.46811 94.56 3.46748 94.5481 3.46623C83.6156 2.30998 65.3419 6.49311 49.7375 22.0969C47.4944 24.34 45.4088 26.8469 43.4631 29.4756C34.9019 24.8094 23.78 28.8312 17.135 35.4762C12.8438 39.7675 9.31375 44.6706 7.45 48.9281C6.74938 50.5281 7.19375 52.34 8.55687 53.4375C9.93 54.5431 11.8087 54.5925 13.2344 53.5581C20.0594 48.6075 26.0938 49.1544 28.0231 51.0837L29.715 52.7756C28.84 54.4387 28.0763 55.8675 27.3669 57.1144C26.88 57.9706 27.0256 59.0469 27.7219 59.7431L33.9894 66.0094L40.2569 72.2769C40.6781 72.6981 41.2375 72.9175 41.8044 72.9175C42.1744 72.9175 42.5469 72.8244 42.885 72.6319C44.1312 71.9231 45.5606 71.1587 47.2238 70.2837L48.9156 71.975C50.8444 73.9044 51.3925 79.9381 46.4406 86.7637C45.4081 88.1887 45.4569 90.0681 46.5619 91.4406C47.3131 92.3731 48.3981 92.8756 49.5213 92.8756C50.0394 92.8756 50.5656 92.7687 51.0706 92.5475C55.3288 90.6837 60.2319 87.1531 64.5225 82.8625C71.1675 76.2169 75.1881 65.095 70.5238 56.5344C73.1525 54.5887 75.6594 52.5031 77.9025 50.26C93.5113 34.6531 97.6931 16.37 96.5325 5.44061ZM92.3125 7.68686C92.4756 11.4187 91.9994 15.91 90.6419 20.7831L79.2175 9.35811C84.0906 8.00061 88.5819 7.52373 92.3125 7.68686ZM12.3363 48.8894C14.1238 45.5656 16.9688 41.8306 20.2288 38.57C25.635 33.1637 34.4525 29.9769 40.9188 33.0925C37.38 38.38 34.3756 43.91 31.8438 48.7181L31.1163 47.9906C27.7544 44.6287 20.2119 43.9606 12.3363 48.8894ZM42.1825 68.0175L37.0825 62.9175L31.9819 57.8175C32.6925 56.5169 33.46 55.0575 34.3375 53.3831L34.5575 52.9625C34.825 52.4512 35.0994 51.9275 35.3794 51.395L48.605 64.6206C48.0731 64.9 47.5506 65.1737 47.0406 65.4406L46.6175 65.6619C44.9425 66.54 43.4831 67.3069 42.1825 68.0175ZM61.4294 79.7706C58.1688 83.0306 54.435 85.875 51.1106 87.6625C56.0394 79.7868 55.37 72.245 52.0088 68.8825L51.2813 68.155C56.0894 65.6231 61.6194 62.6187 66.9069 59.08C70.0225 65.5462 66.8356 74.3644 61.4294 79.7706ZM51.4925 63.0906L36.9094 48.5069C41.0356 40.7931 46.3063 31.7162 52.8312 25.1912C60.3213 17.7012 68.4125 13.0394 75.8606 10.4206L89.5794 24.14C86.9606 31.5881 82.2988 39.6781 74.8088 47.1687C68.2838 53.6937 59.2063 58.9644 51.4925 63.0906Z" fill="#04BEAD"/>
<path d="M77.2119 22.7881C75.5562 21.1318 73.3544 20.22 71.0119 20.22C68.67 20.22 66.4675 21.1318 64.8119 22.7881C61.3931 26.2068 61.3931 31.7693 64.8119 35.1881C66.5212 36.8975 68.7669 37.7518 71.0119 37.7518C73.2575 37.7518 75.5031 36.8975 77.2119 35.1875C80.6306 31.7693 80.6306 26.2062 77.2119 22.7881ZM75.0025 32.9781C72.8025 35.1781 69.2237 35.1787 67.0212 32.9781C64.8212 30.7775 64.8212 27.1975 67.0212 24.9975C68.0875 23.9312 69.505 23.3443 71.0119 23.3443C72.5194 23.3443 73.9369 23.9312 75.0025 24.9975C77.2019 27.1975 77.2019 30.7781 75.0025 32.9781Z" fill="#04BEAD"/>
</svg>
