<svg width="100" height="100" viewBox="0 0 100 100" fill="none" xmlns="http://www.w3.org/2000/svg">
<path d="M64.5913 28.735L53.2913 44.785C52.8663 45.3913 52.1913 45.7163 51.5038 45.7163C51.0663 45.7163 50.6288 45.585 50.2475 45.3163C49.26 44.6225 49.0225 43.2538 49.7163 42.2663L50.3538 41.36C49.96 41.01 49.5663 40.66 49.1663 40.3225C48.5038 39.7413 47.835 39.185 47.1725 38.6475L47.3975 38.3663C48.085 37.1725 48.635 35.8913 49.0538 34.5538C49.3413 34.7788 49.635 35.0163 49.9288 35.2538C50.5163 35.7288 51.11 36.2225 51.6975 36.7288C52.0975 37.0663 52.4913 37.41 52.885 37.76L61.01 26.2163C61.71 25.2288 63.0725 24.9913 64.06 25.685C65.0475 26.385 65.285 27.7475 64.5913 28.735Z" fill="#04BEAD"/>
<path d="M84.0038 62.4288C83.6288 62.6788 83.21 62.7975 82.7913 62.7975C82.085 62.7975 81.3913 62.4538 80.9725 61.8225C79.0037 58.8725 76.1537 57.1975 72.5037 56.835C71.21 56.7038 69.96 56.76 68.8287 56.91C67.2787 57.1225 65.9413 57.5288 64.9725 57.9225C64.16 58.26 63.6037 58.585 63.3975 58.7913C62.5475 59.6413 61.16 59.6413 60.31 58.7913C59.4538 57.935 59.4538 56.5475 60.31 55.6975C60.8038 55.2038 61.5225 54.7163 62.4038 54.2725C61.9413 53.6663 61.4537 53.0475 60.9475 52.4225H60.9412C59.0725 50.1163 56.9788 47.7913 54.7038 45.4975L56.16 43.4288L57.26 41.8663L57.4913 42.0975C59.9913 44.5975 62.2912 47.1413 64.3412 49.66C65.2162 50.7413 66.0287 51.7975 66.7725 52.8225C68.6912 52.4288 70.8225 52.2663 72.935 52.4788C77.885 52.9725 81.9225 55.36 84.61 59.3975C85.2788 60.4038 85.01 61.76 84.0038 62.4288Z" fill="#04BEAD"/>
<path d="M83.605 23.4194L64.9494 39.5394C64.035 40.3294 63.9344 41.7113 64.7244 42.625C65.1569 43.1263 65.7669 43.3825 66.3806 43.3825C66.8875 43.3825 67.3963 43.2075 67.8094 42.85L86.465 26.73C87.3794 25.94 87.48 24.5588 86.69 23.6444C85.9 22.7307 84.5181 22.6294 83.605 23.4194Z" fill="#04BEAD"/>
<path d="M96.7206 40.2625C96.5369 39.6969 96.0475 39.285 95.4587 39.1994L90.5975 38.4925L88.4231 34.0875C88.1594 33.5537 87.6162 33.2162 87.0219 33.2162C86.4269 33.2162 85.8844 33.5544 85.6206 34.0875L83.4469 38.4925L78.5856 39.1994C77.9975 39.285 77.5075 39.6969 77.3237 40.2625C77.14 40.8281 77.2931 41.4487 77.7194 41.8644L81.2369 45.2931L80.4069 50.135C80.3062 50.7213 80.5475 51.3137 81.0281 51.6631C81.5087 52.0125 82.1481 52.0594 82.6737 51.7819L87.0219 49.4956L91.3706 51.7819C91.5987 51.9019 91.8487 51.9612 92.0975 51.9612C92.4212 51.9612 92.7437 51.8606 93.0162 51.6625C93.4975 51.3125 93.7381 50.7206 93.6375 50.1344L92.8075 45.2925L96.325 41.8637C96.7512 41.4487 96.9044 40.8281 96.7206 40.2625ZM90.0375 43.6287C89.6694 43.9875 89.5012 44.5044 89.5881 45.0119L90.0219 47.5431L87.7481 46.3481C87.5206 46.2287 87.2706 46.1687 87.0212 46.1687C86.7719 46.1687 86.5219 46.2287 86.2944 46.3481L84.0212 47.5431L84.455 45.0119C84.5425 44.5044 84.3737 43.9875 84.0056 43.6287L82.1669 41.8363L84.7081 41.4669C85.2169 41.3931 85.6575 41.0731 85.885 40.6125L87.0206 38.3094L88.1569 40.6125C88.3844 41.0737 88.8244 41.3931 89.3337 41.4669L91.875 41.8363L90.0375 43.6287Z" fill="#04BEAD"/>
<path d="M17.7275 15.6862L16.8969 20.5288C16.7963 21.115 17.0375 21.7075 17.5188 22.0569C17.9994 22.4062 18.6369 22.4525 19.1644 22.1756L23.5125 19.8894L27.8606 22.1756C28.0894 22.2956 28.3388 22.355 28.5875 22.355C28.9119 22.355 29.2344 22.2544 29.5063 22.0563C29.9875 21.7069 30.2288 21.1144 30.1281 20.5281L29.2975 15.6862L32.8156 12.2575C33.2413 11.8425 33.395 11.2213 33.2106 10.6556C33.0269 10.09 32.5381 9.6775 31.9494 9.59188L27.0881 8.88562L24.9138 4.48063C24.6506 3.94688 24.1075 3.60938 23.5125 3.60938C22.9175 3.60938 22.3744 3.94688 22.1112 4.48063L19.9369 8.88562L15.0756 9.59188C14.4869 9.6775 13.9981 10.0894 13.8144 10.6556C13.6306 11.2213 13.7838 11.8419 14.2094 12.2575L17.7275 15.6862ZM21.1994 11.8606C21.7081 11.7863 22.1488 11.4669 22.3756 11.0056L23.5119 8.7025L24.6481 11.0056C24.8756 11.4669 25.3156 11.7863 25.8244 11.8606L28.3656 12.23L26.5269 14.0225C26.1588 14.3813 25.9906 14.8988 26.0775 15.4056L26.5113 17.9363L24.2388 16.7413C23.7831 16.5019 23.2394 16.5019 22.7844 16.7413L20.5113 17.9363L20.945 15.405C21.0319 14.8981 20.8644 14.3813 20.4956 14.0225L18.6569 12.23L21.1994 11.8606Z" fill="#04BEAD"/>
<path d="M70.3037 58.3475C68.4725 58.4413 66.8787 58.8725 65.8162 59.2788C67.0662 61.4163 67.585 62.7975 67.7975 63.5975C67.9125 64.0338 67.9506 64.3269 67.9587 64.5213L67.9187 64.5388C67.7237 64.53 67.4325 64.4963 67.0162 64.385C66.16 64.1538 64.6538 63.585 62.2975 62.16C60.31 60.9538 58.135 59.3975 55.835 57.5288C53.4287 55.5788 50.9975 53.3788 48.61 50.985C46.2162 48.5913 44.0163 46.16 42.0662 43.76C40.1975 41.46 38.635 39.285 37.435 37.2975C36.01 34.9413 35.4412 33.435 35.21 32.5788C35.0981 32.1606 35.065 31.8688 35.0563 31.6738L35.0725 31.6363C35.2612 31.6444 35.56 31.6819 35.9912 31.7975C36.8475 32.0225 38.36 32.5913 40.7163 34.0225C40.8413 34.0975 40.9725 34.1788 41.1037 34.2663C41.5344 34.5281 41.9712 34.8088 42.4137 35.115C42.1125 35.6794 41.7756 36.2206 41.3956 36.7263C40.6694 37.6919 40.8638 39.0631 41.8294 39.7894C42.2231 40.0856 42.685 40.2281 43.1425 40.2281C43.8069 40.2281 44.4625 39.9269 44.8925 39.3556C45.7319 38.2394 46.4262 37.01 46.9744 35.7019C46.9987 35.6431 47.0194 35.5831 47.0437 35.5244C47.1562 35.2481 47.2644 34.97 47.3631 34.6875C47.405 34.5688 47.4406 34.4475 47.48 34.3281C47.5531 34.105 47.6256 33.8819 47.6906 33.6556C47.7025 33.615 47.7169 33.5763 47.7281 33.5356C47.7262 33.5344 47.725 33.5331 47.7231 33.5319C48.6506 30.215 48.7131 26.5431 47.8194 22.9625C46.5631 17.9288 43.6356 13.9056 39.9875 12.2013C38.8937 11.6894 37.5906 12.1625 37.08 13.2569C36.5687 14.3513 37.0412 15.6531 38.1356 16.1644C40.5644 17.2994 42.6488 20.3094 43.5744 24.0206C44.1475 26.3175 44.2325 28.6494 43.8625 30.8244C43.8612 30.8238 43.86 30.8225 43.8587 30.8219C43.5588 30.6344 43.265 30.4531 42.9775 30.2781C40.7337 28.9156 38.7588 28.0031 37.115 27.5656C34.815 26.9594 33.0462 27.2531 31.8587 28.4406C31.2844 29.015 30.9244 29.725 30.7669 30.5606L3.38562 93.3281C3.02562 94.1525 3.2075 95.1131 3.84375 95.7494C4.2625 96.1688 4.8225 96.39 5.39125 96.39C5.68625 96.39 5.98375 96.33 6.265 96.2075L69.0081 68.8356C69.8562 68.6806 70.5744 68.3131 71.1531 67.7344C72.3406 66.5469 72.6344 64.7781 72.0281 62.4781C71.71 61.2725 71.1287 59.8913 70.3037 58.3475ZM33.6912 39.5663C34.9975 41.7225 36.6725 44.06 38.6663 46.5163C40.7163 49.035 43.0162 51.5788 45.5162 54.0788C48.01 56.5788 50.56 58.8788 53.0788 60.9288C55.535 62.9225 57.8725 64.5975 60.0287 65.8975C60.7537 66.3375 61.4469 66.7256 62.1138 67.0713L55.6831 69.8769C45.0381 70.2119 34.6981 66.8375 28.9106 61.0456C26.7694 58.9025 25.4706 56.5981 25.1381 54.4075L32.5225 37.4806C32.8669 38.1463 33.2531 38.84 33.6912 39.5663ZM30.3575 80.9244C24.7487 80.7638 20.4494 79.3981 18.1369 77.0144C17.305 76.1569 16.7656 75.1856 16.5237 74.1531L23.2888 58.6463C24.0906 60.2325 25.2363 61.7881 26.7006 63.2531C30.9438 67.4994 38.6937 71.7206 49.0306 72.7781L30.3575 80.9244ZM14.8706 77.9438C15.1737 78.375 15.5087 78.7944 15.8944 79.1919C17.42 80.7644 20.0738 82.5238 24.595 83.4394L9.62437 89.9706L14.8706 77.9438Z" fill="#04BEAD"/>
<path d="M79.0613 18.3875C82.5113 18.3875 85.3181 15.5807 85.3181 12.1307C85.3181 8.68065 82.5113 5.87378 79.0613 5.87378C75.6113 5.87378 72.8044 8.68065 72.8044 12.1307C72.8044 15.5807 75.6113 18.3875 79.0613 18.3875ZM79.0613 8.99878C80.7881 8.99878 82.1931 10.4038 82.1931 12.1307C82.1931 13.8575 80.7881 15.2625 79.0613 15.2625C77.3344 15.2625 75.9294 13.8575 75.9294 12.1307C75.9294 10.4038 77.3344 8.99878 79.0613 8.99878Z" fill="#04BEAD"/>
<path d="M57.1131 21.7063C60.1844 21.7063 62.6825 19.2081 62.6825 16.1369C62.6825 13.0656 60.1844 10.5675 57.1131 10.5675C54.0419 10.5675 51.5438 13.0656 51.5438 16.1369C51.5438 19.2081 54.0425 21.7063 57.1131 21.7063ZM57.1131 13.6931C58.4606 13.6931 59.5575 14.7894 59.5575 16.1375C59.5575 17.4856 58.4612 18.5819 57.1131 18.5819C55.765 18.5819 54.6688 17.4856 54.6688 16.1375C54.6688 14.7894 55.7656 13.6931 57.1131 13.6931Z" fill="#04BEAD"/>
<path d="M83.7556 69.9075C80.6844 69.9075 78.1862 72.4056 78.1862 75.4762C78.1862 78.5475 80.6844 81.0456 83.7556 81.0456C86.8263 81.0456 89.3244 78.5475 89.3244 75.4762C89.3244 72.4056 86.8263 69.9075 83.7556 69.9075ZM83.7556 77.9206C82.4081 77.9206 81.3113 76.8237 81.3113 75.4762C81.3113 74.1287 82.4081 73.0325 83.7556 73.0325C85.1031 73.0325 86.1994 74.1287 86.1994 75.4762C86.1994 76.8237 85.1031 77.9206 83.7556 77.9206Z" fill="#04BEAD"/>
</svg>
