<svg width="245" height="82" viewBox="0 0 245 82" fill="none" xmlns="http://www.w3.org/2000/svg">
<g clip-path="url(#clip0)">
<path d="M225.49 0.00014443H19.5213C18.7705 0.00014443 18.0287 0.00014443 17.2799 0.00424443C16.6531 0.00834443 16.0313 0.0202549 15.3985 0.0302794C14.0237 0.0464781 12.6521 0.167581 11.2957 0.392535C9.94119 0.622386 8.62911 1.05572 7.40384 1.67788C6.18007 2.30531 5.06187 3.12059 4.08982 4.09414C3.11266 5.06495 2.29813 6.18708 1.67754 7.41737C1.05523 8.64522 0.62372 9.96097 0.397912 11.3192C0.169956 12.6757 0.0472916 14.0478 0.0310181 15.4233C0.0120182 16.0518 0.0100118 16.6824 0 17.311V64.6953C0.0100118 65.3318 0.0120182 65.9484 0.0310181 66.5852C0.0472966 67.9606 0.169961 69.3326 0.397912 70.6891C0.623097 72.0481 1.05463 73.3646 1.67754 74.5929C2.29785 75.8192 3.1125 76.9368 4.08982 77.9022C5.05819 78.8801 6.17711 79.6959 7.40384 80.3185C8.6291 80.9424 9.94104 81.3783 11.2957 81.6117C12.6523 81.8348 14.0238 81.956 15.3985 81.9741C16.0313 81.9881 16.6531 81.996 17.2799 81.996C18.0287 82.0001 18.7705 82.0001 19.5213 82.0001H225.49C226.226 82.0001 226.973 82.0001 227.709 81.996C228.333 81.996 228.973 81.9881 229.597 81.9741C230.969 81.9569 232.338 81.8358 233.691 81.6117C235.05 81.3766 236.367 80.9408 237.598 80.3185C238.824 79.6955 239.942 78.8797 240.909 77.9022C241.884 76.933 242.7 75.8162 243.328 74.5929C243.947 73.3637 244.374 72.0473 244.596 70.6891C244.824 69.3325 244.951 67.9607 244.976 66.5852C244.984 65.9484 244.984 65.3318 244.984 64.6953C245 63.9505 245 63.2098 245 62.453V19.5492C245 18.7985 245 18.0538 244.984 17.311C244.984 16.6824 244.984 16.0518 244.976 15.4232C244.951 14.0476 244.824 12.6758 244.596 11.3191C244.374 9.96167 243.946 8.64603 243.328 7.41729C242.065 4.9513 240.061 2.944 237.598 1.6777C236.367 1.05706 235.05 0.623837 233.691 0.39235C232.338 0.166405 230.969 0.0452603 229.597 0.0299924C228.973 0.0199884 228.333 0.00797543 227.709 0.00397793C226.973 -0.00012207 226.226 -0.00012207 225.49 -0.00012207V0.00014443Z" fill="white"/>
<path d="M17.2899 80.2062C16.6661 80.2062 16.0574 80.1982 15.4385 80.1843C14.1564 80.1675 12.8773 80.0558 11.6116 79.8499C10.4315 79.6464 9.28825 79.2679 8.21962 78.7267C7.16079 78.1901 6.19506 77.4864 5.35941 76.6427C4.51166 75.8089 3.80588 74.8419 3.27002 73.7799C2.72825 72.711 2.35332 71.5653 2.15828 70.3826C1.94765 69.1118 1.83369 67.8269 1.81739 66.5389C1.80441 66.1065 1.78741 64.667 1.78741 64.667V17.3108C1.78741 17.3108 1.80551 15.8935 1.81749 15.477C1.8331 14.191 1.9464 12.9081 2.1564 11.6393C2.3518 10.4534 2.72702 9.30439 3.26908 8.23199C3.80297 7.17074 4.50483 6.20297 5.34747 5.3662C6.18916 4.52148 7.15799 3.81419 8.21862 3.27013C9.28479 2.73074 10.4259 2.35485 11.6036 2.15505C12.8734 1.94712 14.157 1.83469 15.4435 1.81873L17.2909 1.7937H227.699L229.569 1.81974C230.843 1.8349 232.115 1.94632 233.373 2.15305C234.563 2.35535 235.716 2.73386 236.794 3.27614C238.919 4.37257 240.648 6.10724 241.739 8.237C242.272 9.30199 242.642 10.4416 242.835 11.6173C243.047 12.8965 243.166 14.1895 243.191 15.4861C243.196 16.0666 243.196 16.6902 243.196 17.3108C243.213 18.0796 243.213 18.8113 243.213 19.549V62.4528C243.213 63.1976 243.213 63.9243 243.196 64.657C243.196 65.3236 243.196 65.9343 243.188 66.5628C243.165 67.8363 243.048 69.1062 242.839 70.3625C242.648 71.5537 242.275 72.7084 241.733 73.786C241.193 74.8365 240.492 75.7952 239.654 76.6267C238.817 77.475 237.85 78.1827 236.789 78.7228C235.713 79.2681 234.562 79.6481 233.373 79.8499C232.108 80.0569 230.829 80.1687 229.546 80.1843C228.947 80.1982 228.319 80.2062 227.709 80.2062L225.49 80.2103L17.2899 80.2062Z" fill="#04BEAD"/>
<path d="M51.1785 40.7736C51.2014 38.9942 51.6735 37.2496 52.5507 35.702C53.4279 34.1545 54.6819 32.8542 56.1959 31.9222C55.2341 30.5469 53.9653 29.415 52.4902 28.6166C51.0151 27.8181 49.3744 27.375 47.6984 27.3225C44.1231 26.9468 40.6571 29.4646 38.8352 29.4646C36.978 29.4646 34.173 27.3598 31.1524 27.4221C29.1986 27.4853 27.2944 28.0541 25.6255 29.0733C23.9566 30.0924 22.5797 31.527 21.6292 33.2373C17.5116 40.3754 20.5829 50.866 24.5273 56.636C26.5007 59.4614 28.8071 62.6174 31.825 62.5055C34.7782 62.3828 35.8811 60.6199 39.4458 60.6199C42.9774 60.6199 44.0122 62.5055 47.0913 62.4343C50.2602 62.3828 52.2568 59.5964 54.161 56.7443C55.5789 54.7311 56.67 52.5061 57.3938 50.1517C55.5528 49.372 53.9817 48.067 52.8765 46.3993C51.7712 44.7316 51.1807 42.775 51.1785 40.7736Z" fill="white"/>
<path d="M45.3636 23.5277C47.0914 21.4509 47.9427 18.7815 47.7366 16.0864C45.0969 16.364 42.6585 17.6272 40.9074 19.6244C40.0512 20.6 39.3954 21.735 38.9776 22.9646C38.5598 24.1941 38.3881 25.4941 38.4723 26.7901C39.7926 26.8037 41.0988 26.5172 42.2925 25.9521C43.4862 25.387 44.5363 24.558 45.3636 23.5277Z" fill="white"/>
<path d="M86.6096 55.6362H76.9184L74.5911 62.517H70.4863L79.6656 37.0601H83.9304L93.1097 62.517H88.9349L86.6096 55.6362ZM77.9222 52.4611H85.604L81.8171 41.2942H81.711L77.9222 52.4611Z" fill="white"/>
<path d="M112.933 53.2381C112.933 59.0057 109.85 62.7113 105.197 62.7113C104.019 62.7731 102.846 62.5012 101.815 61.9269C100.783 61.3526 99.9344 60.4991 99.3648 59.4641H99.2768V68.6571H95.4719V43.957H99.1548V47.044H99.2248C99.8205 46.014 100.684 45.1649 101.723 44.5871C102.763 44.0093 103.939 43.7245 105.127 43.7628C109.832 43.7628 112.933 47.4865 112.933 53.2381ZM109.022 53.2381C109.022 49.4804 107.083 47.01 104.123 47.01C101.216 47.01 99.2609 49.5325 99.2609 53.2381C99.2609 56.9777 101.216 59.4822 104.123 59.4822C107.083 59.4822 109.022 57.0298 109.022 53.2381H109.022Z" fill="white"/>
<path d="M133.336 53.2381C133.336 59.0057 130.252 62.7113 125.599 62.7113C124.421 62.7731 123.248 62.5012 122.217 61.9269C121.185 61.3526 120.336 60.4991 119.767 59.4641H119.679V68.6571H115.874V43.957H119.557V47.044H119.627C120.223 46.014 121.086 45.1649 122.125 44.5871C123.165 44.0093 124.341 43.7245 125.529 43.7628C130.234 43.7628 133.336 47.4865 133.336 53.2381ZM129.424 53.2381C129.424 49.4804 127.485 47.01 124.525 47.01C121.618 47.01 119.663 49.5325 119.663 53.2381C119.663 56.9777 121.618 59.4822 124.525 59.4822C127.485 59.4822 129.424 57.0298 129.424 53.2381Z" fill="white"/>
<path d="M146.819 55.4241C147.101 57.9485 149.551 59.6061 152.898 59.6061C156.105 59.6061 158.412 57.9484 158.412 55.6722C158.412 53.6963 157.02 52.5132 153.725 51.7023L150.43 50.9076C145.762 49.7785 143.594 47.5923 143.594 44.0449C143.594 39.6526 147.417 36.6356 152.844 36.6356C158.218 36.6356 161.901 39.6526 162.025 44.0449H158.184C157.954 41.5044 155.857 39.9709 152.792 39.9709C149.727 39.9709 147.629 41.5224 147.629 43.7806C147.629 45.5804 148.969 46.6394 152.246 47.4501L155.047 48.1388C160.263 49.374 162.429 51.4721 162.429 55.1957C162.429 59.9583 158.642 62.9412 152.616 62.9412C146.977 62.9412 143.17 60.0284 142.924 55.4239L146.819 55.4241Z" fill="white"/>
<path d="M170.644 39.5646V43.9569H174.169V46.9738H170.644V57.2058C170.644 58.7953 171.35 59.5361 172.9 59.5361C173.318 59.5288 173.736 59.4993 174.151 59.4479V62.4468C173.455 62.5772 172.747 62.6362 172.038 62.623C168.285 62.623 166.822 61.2116 166.822 57.6121V46.9738H164.126V43.9569H166.821V39.5646H170.644Z" fill="white"/>
<path d="M176.208 53.2379C176.208 47.3982 179.643 43.7286 184.999 43.7286C190.374 43.7286 193.793 47.3981 193.793 53.2379C193.793 59.0936 190.392 62.7472 184.999 62.7472C179.609 62.7472 176.208 59.0936 176.208 53.2379ZM189.916 53.2379C189.916 49.232 188.082 46.8677 184.999 46.8677C181.916 46.8677 180.083 49.25 180.083 53.2379C180.083 57.2598 181.916 59.6061 184.999 59.6061C188.082 59.6061 189.916 57.2598 189.916 53.2379H189.916Z" fill="white"/>
<path d="M196.93 43.957H200.559V47.116H200.647C200.892 46.1294 201.469 45.2574 202.281 44.6468C203.093 44.0361 204.091 43.7239 205.105 43.7627C205.544 43.7612 205.981 43.8089 206.409 43.9049V47.4684C205.855 47.299 205.278 47.2212 204.699 47.2382C204.147 47.2157 203.596 47.3133 203.084 47.5242C202.572 47.7351 202.113 48.0544 201.736 48.46C201.359 48.8657 201.075 49.3482 200.902 49.8744C200.729 50.4006 200.672 50.958 200.735 51.5083V62.5171H196.93L196.93 43.957Z" fill="white"/>
<path d="M223.952 57.0656C223.44 60.4349 220.163 62.7472 215.97 62.7472C210.578 62.7472 207.231 59.1296 207.231 53.326C207.231 47.5043 210.596 43.7286 215.81 43.7286C220.939 43.7286 224.164 47.2561 224.164 52.8836V54.1888H211.071V54.4191C211.011 55.1021 211.096 55.7902 211.322 56.4377C211.548 57.0852 211.908 57.6772 212.38 58.1744C212.851 58.6716 213.423 59.0627 214.058 59.3216C214.692 59.5805 215.374 59.7014 216.058 59.6762C216.957 59.7605 217.859 59.552 218.631 59.0817C219.402 58.6113 220.001 57.9042 220.339 57.0656L223.952 57.0656ZM211.089 51.5262H220.357C220.391 50.9121 220.298 50.2975 220.084 49.721C219.869 49.1445 219.538 48.6186 219.111 48.1763C218.684 47.734 218.171 47.3848 217.603 47.1506C217.035 46.9165 216.424 46.8024 215.81 46.8156C215.19 46.8119 214.576 46.9311 214.003 47.1664C213.43 47.4016 212.908 47.7482 212.47 48.1861C212.031 48.6241 211.683 49.1447 211.446 49.718C211.209 50.2913 211.088 50.9059 211.089 51.5263V51.5262Z" fill="white"/>
<path d="M77.4463 17.8985C78.244 17.8412 79.0444 17.9619 79.7899 18.2518C80.5354 18.5417 81.2073 18.9937 81.7572 19.5752C82.3071 20.1566 82.7213 20.853 82.9698 21.6141C83.2184 22.3752 83.2951 23.182 83.1946 23.9764C83.1946 27.8843 81.0852 30.1305 77.4463 30.1305H73.0336V17.8985H77.4463ZM74.931 28.4007H77.2343C77.8043 28.4348 78.3748 28.3412 78.9041 28.1268C79.4334 27.9123 79.9083 27.5823 80.2943 27.1609C80.6802 26.7395 80.9674 26.2373 81.135 25.6907C81.3026 25.1441 81.3464 24.567 81.2631 24.0014C81.3403 23.438 81.2921 22.8644 81.1219 22.3219C80.9518 21.7793 80.6638 21.2812 80.2788 20.8631C79.8938 20.445 79.4211 20.1174 78.8948 19.9037C78.3684 19.6901 77.8014 19.5956 77.2343 19.6271H74.931V28.4007Z" fill="white"/>
<path d="M85.3383 25.5109C85.2803 24.9043 85.3496 24.2922 85.5417 23.7139C85.7339 23.1357 86.0446 22.6041 86.4539 22.1531C86.8633 21.7021 87.3623 21.3418 87.9189 21.0952C88.4754 20.8487 89.0773 20.7213 89.686 20.7213C90.2946 20.7213 90.8965 20.8487 91.4531 21.0952C92.0097 21.3418 92.5087 21.7021 92.918 22.1531C93.3274 22.6041 93.6381 23.1357 93.8302 23.7139C94.0224 24.2922 94.0917 24.9043 94.0337 25.5109C94.0928 26.1181 94.0243 26.7311 93.8327 27.3102C93.641 27.8894 93.3305 28.422 92.921 28.8739C92.5116 29.3257 92.0122 29.6868 91.4551 29.9339C90.8979 30.181 90.2953 30.3087 89.686 30.3087C89.0766 30.3087 88.474 30.181 87.9169 29.9339C87.3597 29.6868 86.8604 29.3257 86.4509 28.8739C86.0414 28.422 85.7309 27.8894 85.5393 27.3102C85.3477 26.7311 85.2792 26.1181 85.3383 25.5109ZM92.1622 25.5109C92.1622 23.5099 91.2645 22.3398 89.689 22.3398C88.1074 22.3398 87.2178 23.5099 87.2178 25.5109C87.2178 27.5279 88.1075 28.689 89.689 28.689C91.2645 28.689 92.1623 27.5198 92.1623 25.5109H92.1622Z" fill="white"/>
<path d="M105.592 30.1304H103.705L101.799 23.3318H101.655L99.7577 30.1304H97.8883L95.347 20.8994H97.1925L98.844 27.9432H98.98L100.875 20.8994H102.621L104.516 27.9432H104.66L106.304 20.8994H108.123L105.592 30.1304Z" fill="white"/>
<path d="M110.26 20.8994H112.011V22.3659H112.147C112.378 21.8392 112.767 21.3977 113.26 21.1029C113.753 20.8081 114.326 20.6747 114.898 20.7212C115.347 20.6875 115.797 20.7552 116.216 20.9194C116.635 21.0836 117.012 21.3401 117.318 21.6698C117.625 21.9995 117.853 22.3941 117.987 22.8242C118.12 23.2543 118.155 23.709 118.089 24.1546V30.1303H116.27V24.6121C116.27 23.1286 115.626 22.3909 114.28 22.3909C113.976 22.3767 113.672 22.4286 113.389 22.543C113.106 22.6575 112.852 22.8318 112.643 23.054C112.434 23.2762 112.275 23.541 112.178 23.8303C112.08 24.1196 112.047 24.4266 112.079 24.7302V30.1304H110.26L110.26 20.8994Z" fill="white"/>
<path d="M120.988 17.2959H122.808V30.1304H120.988V17.2959Z" fill="white"/>
<path d="M125.338 25.5109C125.281 24.9043 125.35 24.2922 125.542 23.7139C125.734 23.1356 126.045 22.604 126.454 22.153C126.864 21.702 127.363 21.3417 127.919 21.0951C128.476 20.8486 129.078 20.7212 129.687 20.7212C130.295 20.7212 130.897 20.8486 131.454 21.0951C132.011 21.3417 132.51 21.702 132.919 22.153C133.328 22.604 133.639 23.1356 133.831 23.7139C134.023 24.2922 134.093 24.9043 134.035 25.5109C134.094 26.1182 134.025 26.7311 133.834 27.3103C133.642 27.8895 133.331 28.4221 132.922 28.8739C132.512 29.3258 132.013 29.6868 131.456 29.9339C130.899 30.181 130.296 30.3086 129.687 30.3086C129.077 30.3086 128.475 30.181 127.918 29.9339C127.36 29.6868 126.861 29.3258 126.451 28.8739C126.042 28.4221 125.731 27.8895 125.54 27.3103C125.348 26.7311 125.279 26.1182 125.338 25.5109ZM132.162 25.5109C132.162 23.51 131.265 22.3399 129.689 22.3399C128.108 22.3399 127.218 23.51 127.218 25.511C127.218 27.5279 128.108 28.6891 129.689 28.6891C131.265 28.689 132.162 27.5199 132.162 25.5109H132.162Z" fill="white"/>
<path d="M135.951 27.5199C135.951 25.8583 137.186 24.9004 139.38 24.7642L141.877 24.6201V23.8233C141.877 22.8484 141.233 22.2978 139.989 22.2978C138.974 22.2978 138.27 22.6712 138.068 23.3239H136.306C136.492 21.7383 137.982 20.7213 140.073 20.7213C142.385 20.7213 143.688 21.8734 143.688 23.8233V30.1305H141.937V28.8332H141.793C141.501 29.2986 141.09 29.6779 140.604 29.9325C140.117 30.1872 139.572 30.308 139.024 30.2826C138.637 30.3229 138.245 30.2815 137.875 30.1612C137.505 30.0409 137.164 29.8442 136.875 29.5839C136.585 29.3237 136.354 29.0055 136.194 28.65C136.035 28.2945 135.952 27.9095 135.951 27.5199ZM141.877 26.7312V25.9594L139.625 26.1035C138.356 26.1886 137.78 26.621 137.78 27.4348C137.78 28.2656 138.5 28.7491 139.49 28.7491C139.78 28.7785 140.073 28.7492 140.351 28.6629C140.629 28.5766 140.888 28.4351 141.11 28.2469C141.333 28.0586 141.516 27.8274 141.647 27.567C141.779 27.3066 141.857 27.0223 141.877 26.7312Z" fill="white"/>
<path d="M146.08 25.5109C146.08 22.5941 147.577 20.7463 149.906 20.7463C150.483 20.7197 151.054 20.8579 151.555 21.1447C152.056 21.4315 152.465 21.855 152.734 22.3658H152.87V17.2959H154.689V30.1304H152.946V28.672H152.802C152.512 29.1793 152.089 29.5976 151.578 29.8815C151.068 30.1654 150.49 30.3041 149.906 30.2825C147.561 30.2826 146.08 28.4348 146.08 25.5109ZM147.959 25.5109C147.959 27.4689 148.881 28.647 150.422 28.647C151.956 28.647 152.904 27.4519 152.904 25.519C152.904 23.5951 151.946 22.3829 150.422 22.3829C148.891 22.3829 147.959 23.569 147.959 25.5109H147.959Z" fill="white"/>
<path d="M162.216 25.5109C162.158 24.9043 162.227 24.2922 162.42 23.7139C162.612 23.1357 162.922 22.6041 163.332 22.1531C163.741 21.7021 164.24 21.3418 164.797 21.0952C165.353 20.8487 165.955 20.7213 166.564 20.7213C167.172 20.7213 167.774 20.8487 168.331 21.0952C168.888 21.3418 169.387 21.7021 169.796 22.1531C170.205 22.6041 170.516 23.1357 170.708 23.7139C170.9 24.2922 170.97 24.9043 170.912 25.5109C170.971 26.1181 170.902 26.7311 170.711 27.3102C170.519 27.8894 170.208 28.422 169.799 28.8739C169.389 29.3257 168.89 29.6868 168.333 29.9339C167.776 30.181 167.173 30.3087 166.564 30.3087C165.954 30.3087 165.352 30.181 164.795 29.9339C164.238 29.6868 163.738 29.3257 163.329 28.8739C162.919 28.422 162.609 27.8894 162.417 27.3102C162.226 26.7311 162.157 26.1181 162.216 25.5109ZM169.04 25.5109C169.04 23.5099 168.142 22.3398 166.567 22.3398C164.985 22.3398 164.096 23.5099 164.096 25.5109C164.096 27.5279 164.985 28.689 166.567 28.689C168.142 28.689 169.04 27.5198 169.04 25.5109Z" fill="white"/>
<path d="M173.353 20.8994H175.104V22.3659H175.24C175.471 21.8392 175.86 21.3977 176.353 21.1029C176.846 20.8081 177.419 20.6747 177.991 20.7212C178.44 20.6875 178.89 20.7552 179.309 20.9194C179.728 21.0836 180.105 21.3401 180.411 21.6698C180.718 21.9995 180.946 22.3941 181.079 22.8242C181.213 23.2543 181.248 23.709 181.182 24.1546V30.1303H179.363V24.6121C179.363 23.1286 178.719 22.3909 177.373 22.3909C177.069 22.3767 176.765 22.4286 176.482 22.543C176.199 22.6575 175.945 22.8318 175.736 23.054C175.527 23.2762 175.368 23.541 175.271 23.8303C175.173 24.1196 175.14 24.4266 175.172 24.7302V30.1304H173.353V20.8994Z" fill="white"/>
<path d="M191.464 18.6012V20.9415H193.462V22.476H191.464V27.2226C191.464 28.1896 191.862 28.613 192.768 28.613C193 28.6122 193.231 28.5982 193.462 28.5709V30.0884C193.135 30.1469 192.804 30.1781 192.472 30.1815C190.449 30.1815 189.643 29.4688 189.643 27.689V22.4759H188.179V20.9414H189.643V18.6012H191.464Z" fill="white"/>
<path d="M195.946 17.2959H197.749V22.3829H197.893C198.135 21.8513 198.535 21.4073 199.038 21.1113C199.541 20.8154 200.123 20.682 200.704 20.7293C201.151 20.7049 201.597 20.7795 202.011 20.9477C202.425 21.1159 202.797 21.3735 203.1 21.7022C203.404 22.0309 203.631 22.4226 203.765 22.8493C203.9 23.2759 203.939 23.7271 203.879 24.1706V30.1304H202.058V24.62C202.058 23.1456 201.372 22.3989 200.087 22.3989C199.774 22.3732 199.46 22.4162 199.165 22.525C198.871 22.6337 198.604 22.8056 198.383 23.0285C198.161 23.2514 197.992 23.52 197.885 23.8155C197.779 24.111 197.738 24.4262 197.765 24.7391V30.1304H195.946L195.946 17.2959Z" fill="white"/>
<path d="M214.488 27.6381C214.241 28.4817 213.705 29.2115 212.975 29.6997C212.245 30.1879 211.366 30.4035 210.493 30.3087C209.886 30.3247 209.282 30.2083 208.724 29.9673C208.166 29.7264 207.668 29.3668 207.262 28.9134C206.857 28.4601 206.555 27.9239 206.378 27.3421C206.2 26.7603 206.152 26.1467 206.235 25.5441C206.154 24.9395 206.203 24.3247 206.381 23.7411C206.558 23.1575 206.858 22.6188 207.261 22.1615C207.664 21.7042 208.16 21.339 208.717 21.0905C209.273 20.842 209.876 20.7161 210.485 20.7213C213.051 20.7213 214.598 22.4761 214.598 25.3748V26.0105H208.088V26.1126C208.06 26.4514 208.102 26.7924 208.213 27.1137C208.324 27.435 208.5 27.7296 208.731 27.9786C208.963 28.2276 209.243 28.4255 209.555 28.5595C209.867 28.6936 210.204 28.7609 210.543 28.7571C210.979 28.8094 211.419 28.731 211.81 28.5317C212.201 28.3324 212.523 28.0213 212.737 27.638L214.488 27.6381ZM208.088 24.6632H212.745C212.768 24.3534 212.725 24.0422 212.621 23.7496C212.517 23.457 212.353 23.1896 212.139 22.9644C211.925 22.7391 211.667 22.5612 211.38 22.4419C211.094 22.3227 210.785 22.2647 210.475 22.2719C210.161 22.2679 209.848 22.3271 209.557 22.4458C209.265 22.5646 209.001 22.7406 208.778 22.9635C208.556 23.1864 208.38 23.4516 208.261 23.7435C208.143 24.0354 208.084 24.3481 208.088 24.6632H208.088Z" fill="white"/>
</g>
<defs>
<clipPath id="clip0">
<rect width="245" height="82" fill="white"/>
</clipPath>
</defs>
</svg>
